<svg width="172" height="36" viewBox="0 0 172 36" fill="none" xmlns="http://www.w3.org/2000/svg">
<g clip-path="url(#clip0)">
<path d="M34.2077 2.46664H1.74087C0.779299 2.46664 0 3.24602 0 4.2075V24.5756C0 25.5371 0.779299 26.3165 1.74087 26.3165H13.8832V30.2613H9.15827C8.27034 30.2613 7.54796 30.9837 7.54796 31.8716C7.54796 32.7595 8.27034 33.4819 9.15827 33.4819H26.7903C27.6782 33.4819 28.4006 32.7595 28.4006 31.8716C28.4006 30.9837 27.6782 30.2613 26.7903 30.2613H22.0653V26.3165H34.2077C35.1693 26.3165 35.9486 25.5371 35.9486 24.5756V4.2075C35.9486 3.24602 35.1693 2.46664 34.2077 2.46664ZM33.3373 23.7052H2.6113V5.07794H33.3373V23.7052Z" fill="#515151"/>
<path d="M8.23352 15.3751L13.7246 17.9286C13.8665 17.9943 14.0176 18.0276 14.1739 18.0276C14.3774 18.0276 14.5757 17.9698 14.7481 17.8602C15.0569 17.6628 15.2413 17.3266 15.2413 16.9606V16.9325C15.2413 16.519 14.9989 16.1391 14.6236 15.9647L11.1893 14.3692L14.6237 12.7733C14.9989 12.5989 15.2413 12.219 15.2413 11.8056V11.7778C15.2413 11.4113 15.0568 11.075 14.7482 10.8783C14.5774 10.7692 14.3785 10.7116 14.1732 10.7116C14.0184 10.7116 13.8631 10.7456 13.724 10.8102L8.23343 13.3633C7.85845 13.5379 7.61621 13.9177 7.61621 14.331V14.4074C7.61612 14.8202 7.85828 15.1999 8.23352 15.3751Z" fill="#515151"/>
<path d="M15.2902 20.5761C15.4905 20.8502 15.8126 21.0138 16.152 21.0138H16.1794C16.6453 21.0138 17.0535 20.7156 17.1954 20.2726L20.8126 9.06487C20.9164 8.74133 20.8588 8.38437 20.6585 8.10966C20.4582 7.83556 20.1361 7.67183 19.7967 7.67183H19.7693C19.3033 7.67183 18.8947 7.97004 18.7528 8.41309L15.1351 19.6217C15.0322 19.9455 15.0902 20.3022 15.2902 20.5761Z" fill="#515151"/>
<path d="M20.7072 11.8055C20.7072 12.2186 20.9494 12.5985 21.3248 12.7736L24.7591 14.3691L21.3248 15.9646C20.9496 16.1391 20.7072 16.5189 20.7072 16.9325V16.9605C20.7072 17.3265 20.8914 17.6628 21.2006 17.8602C21.3724 17.9697 21.5709 18.0276 21.7747 18.0276C21.9306 18.0276 22.0817 17.9942 22.2246 17.9281L27.7154 15.3747C28.0903 15.1999 28.3324 14.8201 28.3324 14.4072V14.3308C28.3324 13.9175 28.0902 13.5377 27.715 13.3632L22.2243 10.8098C22.0858 10.7455 21.9307 10.7114 21.7759 10.7114C21.5706 10.7114 21.3716 10.769 21.201 10.8778C20.8917 11.0749 20.7072 11.4111 20.7072 11.7777V11.8055Z" fill="#515151"/>
</g>
<path d="M50.9978 22V4.96H57.1898C58.5818 4.96 59.7978 5.184 60.8378 5.632C61.8938 6.08 62.7738 6.688 63.4778 7.456C64.1818 8.224 64.7098 9.128 65.0618 10.168C65.4138 11.192 65.5898 12.288 65.5898 13.456C65.5898 14.752 65.3898 15.928 64.9898 16.984C64.6058 18.024 64.0458 18.92 63.3098 19.672C62.5738 20.408 61.6858 20.984 60.6458 21.4C59.6218 21.8 58.4698 22 57.1898 22H50.9978ZM62.2538 13.456C62.2538 12.64 62.1418 11.888 61.9178 11.2C61.6938 10.512 61.3658 9.92 60.9338 9.424C60.5018 8.928 59.9658 8.544 59.3258 8.272C58.7018 8 57.9898 7.864 57.1898 7.864H54.3098V19.096H57.1898C58.0058 19.096 58.7258 18.952 59.3498 18.664C59.9898 18.376 60.5178 17.984 60.9338 17.488C61.3658 16.976 61.6938 16.376 61.9178 15.688C62.1418 15 62.2538 14.256 62.2538 13.456ZM77.2975 22.24C76.2895 22.24 75.3775 22.072 74.5615 21.736C73.7455 21.384 73.0495 20.912 72.4735 20.32C71.8975 19.728 71.4495 19.04 71.1295 18.256C70.8255 17.472 70.6735 16.648 70.6735 15.784C70.6735 14.888 70.8255 14.048 71.1295 13.264C71.4335 12.464 71.8735 11.768 72.4495 11.176C73.0255 10.568 73.7215 10.088 74.5375 9.736C75.3695 9.384 76.2975 9.208 77.3215 9.208C78.3455 9.208 79.2575 9.384 80.0575 9.736C80.8735 10.088 81.5615 10.56 82.1215 11.152C82.6975 11.744 83.1295 12.432 83.4175 13.216C83.7215 14 83.8735 14.816 83.8735 15.664C83.8735 15.872 83.8655 16.072 83.8495 16.264C83.8495 16.456 83.8335 16.616 83.8015 16.744H74.0815C74.1295 17.24 74.2495 17.68 74.4415 18.064C74.6335 18.448 74.8815 18.776 75.1855 19.048C75.4895 19.32 75.8335 19.528 76.2175 19.672C76.6015 19.816 77.0015 19.888 77.4175 19.888C78.0575 19.888 78.6575 19.736 79.2175 19.432C79.7935 19.112 80.1855 18.696 80.3935 18.184L83.1535 18.952C82.6895 19.912 81.9455 20.704 80.9215 21.328C79.9135 21.936 78.7055 22.24 77.2975 22.24ZM80.5615 14.656C80.4815 13.712 80.1295 12.96 79.5055 12.4C78.8975 11.824 78.1535 11.536 77.2735 11.536C76.8415 11.536 76.4335 11.616 76.0495 11.776C75.6815 11.92 75.3535 12.128 75.0655 12.4C74.7775 12.672 74.5375 13 74.3455 13.384C74.1695 13.768 74.0655 14.192 74.0335 14.656H80.5615ZM92.4886 22L87.8566 9.424H91.1686L94.3606 19.384L97.5766 9.424H100.601L95.9686 22H92.4886Z" fill="#515151"/>
<defs>
<clipPath id="clip0">
<rect width="35.9486" height="35.9486" fill="white"/>
</clipPath>
</defs>
</svg>
