<svg width="176" height="25" viewBox="0 0 176 25" fill="none" xmlns="http://www.w3.org/2000/svg">
<path d="M108.576 20.13C108.576 20.2334 108.457 20.3161 108.307 20.3161C108.137 20.3316 108.018 20.2489 108.018 20.13C108.018 20.0266 108.137 19.9439 108.287 19.9439C108.442 19.9284 108.576 20.0111 108.576 20.13ZM106.968 19.8973C106.932 20.0007 107.036 20.1196 107.191 20.1506C107.325 20.2023 107.48 20.1506 107.511 20.0473C107.542 19.9439 107.444 19.825 107.289 19.7784C107.155 19.7423 107.005 19.7939 106.968 19.8973ZM109.253 19.8095C109.103 19.8456 109 19.9439 109.016 20.0628C109.031 20.1662 109.165 20.2334 109.321 20.1972C109.47 20.161 109.574 20.0628 109.558 19.9594C109.543 19.8612 109.403 19.7939 109.253 19.8095ZM112.655 0C105.485 0 100 5.44346 100 12.6135C100 18.3465 103.608 23.2523 108.762 24.9789C109.424 25.0978 109.657 24.6894 109.657 24.3534C109.657 24.0329 109.641 22.265 109.641 21.1794C109.641 21.1794 106.022 21.9548 105.263 19.6389C105.263 19.6389 104.673 18.1345 103.825 17.7468C103.825 17.7468 102.642 16.9352 103.908 16.9507C103.908 16.9507 105.195 17.0541 105.904 18.2845C107.036 20.2799 108.933 19.7061 109.672 19.3649C109.791 18.5378 110.127 17.964 110.499 17.6228C107.609 17.3023 104.694 16.8835 104.694 11.9105C104.694 10.4889 105.087 9.77549 105.914 8.86566C105.779 8.52965 105.34 7.14422 106.048 5.35558C107.129 5.01957 109.615 6.75134 109.615 6.75134C110.649 6.46185 111.761 6.31194 112.862 6.31194C113.963 6.31194 115.074 6.46185 116.108 6.75134C116.108 6.75134 118.595 5.0144 119.675 5.35558C120.383 7.14939 119.944 8.52965 119.809 8.86566C120.637 9.78066 121.143 10.494 121.143 11.9105C121.143 16.899 118.098 17.2971 115.209 17.6228C115.684 18.0312 116.087 18.8066 116.087 20.0214C116.087 21.7635 116.072 23.9192 116.072 24.3431C116.072 24.6791 116.31 25.0875 116.966 24.9686C122.136 23.2523 125.641 18.3465 125.641 12.6135C125.641 5.44346 119.825 0 112.655 0ZM105.025 17.8295C104.958 17.8812 104.973 18.0001 105.061 18.0984C105.144 18.1811 105.263 18.2173 105.33 18.1501C105.397 18.0984 105.381 17.9795 105.294 17.8812C105.211 17.7985 105.092 17.7623 105.025 17.8295ZM104.466 17.4108C104.43 17.478 104.482 17.5607 104.585 17.6124C104.668 17.6641 104.771 17.6486 104.808 17.5762C104.844 17.509 104.792 17.4263 104.689 17.3746C104.585 17.3436 104.503 17.3591 104.466 17.4108ZM106.141 19.2512C106.059 19.3184 106.09 19.4734 106.209 19.5717C106.327 19.6906 106.477 19.7061 106.545 19.6234C106.612 19.5562 106.581 19.4011 106.477 19.3028C106.364 19.1839 106.209 19.1684 106.141 19.2512ZM105.552 18.4912C105.469 18.5429 105.469 18.6773 105.552 18.7962C105.635 18.9151 105.774 18.9668 105.842 18.9151C105.924 18.8479 105.924 18.7135 105.842 18.5946C105.769 18.4757 105.635 18.424 105.552 18.4912Z" fill="white"/>
<circle cx="62.5" cy="12.5" r="12.5" fill="white"/>
<path d="M59.4646 17.4972H56.8731V9.15365H59.4646V17.4972ZM58.1674 8.01551C57.3389 8.01551 56.6666 7.32928 56.6666 6.50078C56.6666 5.67228 57.3389 5 58.1674 5C58.9959 5 59.6682 5.67228 59.6682 6.50078C59.6682 7.32928 58.9959 8.01551 58.1674 8.01551ZM69.1638 17.4972H66.5779V13.4356C66.5779 12.4676 66.5584 11.2263 65.2306 11.2263C63.8832 11.2263 63.6768 12.278 63.6768 13.3659V17.4972H61.0881V9.15365H63.5736V10.2918H63.6098C63.9557 9.63624 64.801 8.94443 66.0618 8.94443C68.684 8.94443 69.1666 10.6712 69.1666 12.914V17.4972H69.1638Z" fill="#FF9A3D"/>
<circle cx="12.5" cy="12.5" r="12.5" fill="white"/>
<path d="M18.8086 9.78197C18.8184 9.91868 18.8184 10.0554 18.8184 10.1921C18.8184 14.362 15.6446 19.1667 9.84375 19.1667C8.05664 19.1667 6.39649 18.6491 5 17.7507C5.25392 17.78 5.49803 17.7898 5.76172 17.7898C7.2363 17.7898 8.59375 17.2918 9.67773 16.4422C8.29101 16.4128 7.1289 15.5046 6.7285 14.2546C6.92383 14.2839 7.11913 14.3035 7.32423 14.3035C7.60742 14.3035 7.89065 14.2644 8.1543 14.1961C6.70899 13.9031 5.62497 12.6335 5.62497 11.1003V11.0613C6.04488 11.2957 6.5332 11.4421 7.05074 11.4617C6.20113 10.8952 5.64451 9.92845 5.64451 8.83469C5.64451 8.24877 5.80073 7.71166 6.07419 7.24291C7.62693 9.15697 9.96093 10.4069 12.5781 10.5437C12.5293 10.3093 12.5 10.0652 12.5 9.82105C12.5 8.08275 13.9062 6.66675 15.6543 6.66675C16.5625 6.66675 17.3828 7.04761 17.959 7.66284C18.6718 7.52613 19.3554 7.26244 19.9609 6.90112C19.7265 7.63356 19.2285 8.2488 18.5742 8.6394C19.209 8.57107 19.8242 8.39525 20.3906 8.15113C19.961 8.77611 19.4238 9.33273 18.8086 9.78197Z" fill="#FF9A3D"/>
<circle cx="163.5" cy="12.5" r="12.5" fill="white"/>
<path d="M161.83 20.8334V13.379H159.333V10.4167H161.83V8.08276C161.83 5.54696 163.38 4.16675 165.642 4.16675C166.726 4.16675 167.657 4.24813 167.927 4.28394V6.93368H166.358C165.128 6.93368 164.89 7.51961 164.89 8.37573V10.4167H167.667L167.286 13.379H164.89V20.8334" fill="#FF9A3D"/>
</svg>
